PathFileType	4	(X/Y/Z)	/Users/itak/Documents/Research/Walk-IL/dataset/trc/00200_00008.trc
DataRate	CameraRate	NumFrames	NumMarkers	Units	OrigDataRate	OrigDataStartFrame	OrigNumFrames
100.000000	100.000000	4	53	mm	100.000000	412	550
Frame#	Time	RPSI			LPSI			L3			STRN			T10			C7			CLAV			RBAK			LBAK			LSHO			LUPA			LAEL			LAOL			LWTS			LWPS			LFRA			LIFD			LHPS			LHTS			RSHO			RUPA			RAEL			RAOL			RWTS			RWPS			RFRA			RIFD			RHTS			RHPS			RBHD			LFHD			RFHD			LBHD			LHIP			RHIP			RASI			LASI			LKNE			LTHI			LANK			LTIP			LTOE			LMT1			LMT5			LHEE			RKNE			RTHI			RANK			RTIP			RTOE			RMT1			RMT5			RHEE			
		X1	Y1	Z1	X2	Y2	Z2	X3	Y3	Z3	X4	Y4	Z4	X5	Y5	Z5	X6	Y6	Z6	X7	Y7	Z7	X8	Y8	Z8	X9	Y9	Z9	X10	Y10	Z10	X11	Y11	Z11	X12	Y12	Z12	X13	Y13	Z13	X14	Y14	Z14	X15	Y15	Z15	X16	Y16	Z16	X17	Y17	Z17	X18	Y18	Z18	X19	Y19	Z19	X20	Y20	Z20	X21	Y21	Z21	X22	Y22	Z22	X23	Y23	Z23	X24	Y24	Z24	X25	Y25	Z25	X26	Y26	Z26	X27	Y27	Z27	X28	Y28	Z28	X29	Y29	Z29	X30	Y30	Z30	X31	Y31	Z31	X32	Y32	Z32	X33	Y33	Z33	X34	Y34	Z34	X35	Y35	Z35	X36	Y36	Z36	X37	Y37	Z37	X38	Y38	Z38	X39	Y39	Z39	X40	Y40	Z40	X41	Y41	Z41	X42	Y42	Z42	X43	Y43	Z43	X44	Y44	Z44	X45	Y45	Z45	X46	Y46	Z46	X47	Y47	Z47	X48	Y48	Z48	X49	Y49	Z49	X50	Y50	Z50	X51	Y51	Z51	X52	Y52	Z52	X53	Y53	Z53	

413	4.12	217.2742156982422	1035.464477539062	526.93408203125	340.1179809570312	1038.561889648438	521.5640258789062	271.3644409179688	1072.153076171875	523.3558349609375	292.150634765625	1299.959838867188	764.5581665039062	260.8756103515625	1222.670776367188	473.5818481445312	273.494140625	1497.254272460938	516.6495361328125	296.3049621582031	1410.00732421875	724.4848022460938	160.6571655273438	1315.737670898438	477.1649780273438	371.5077819824219	1471.703002929688	499.2861328125	459.3381652832031	1466.92578125	564.11376953125	528.2135620117188	1334.040649414062	526.60302734375	554.5551147460938	1120.467407226562	543.2230834960938	469.1933898925781	1098.019775390625	526.5958251953125	584.6544189453125	891.8840942382812	660.9306640625	588.8396606445312	870.2274169921875	569.8453369140625	578.1336059570312	1011.763061523438	552.6287231445312	577.3951416015625	706.8352661132812	682.9598388671875	598.20263671875	801.4631958007812	591.40625	610.8200073242188	813.5266723632812	662.8175659179688	102.0006484985352	1480.50927734375	603.390625	32.01107788085938	1412.863037109375	596.3333129882812	-23.02462387084961	1126.493896484375	603.2881469726562	75.94659423828125	1114.640991210938	594.7169799804688	-7.889422416687012	905.8388061523438	752.8247680664062	-58.55521774291992	888.4769287109375	679.327392578125	-43.11704254150391	1057.173706054688	632.31103515625	9.933748245239258	713.5402221679688	766.677490234375	-17.77795600891113	811.1378173828125	779.7000122070312	-57.76763534545898	806.3316650390625	709.8989868164062	208.9005889892578	1660.537353515625	562.7852783203125	358.2491760253906	1728.623413085938	707.0689697265625	230.8076019287109	1728.720947265625	723.6942749023438	344.1488037109375	1666.81396484375	538.95703125	471.4131164550781	993.8460693359375	626.5150146484375	103.5021362304688	994.3130493164062	690.2671508789062	157.5448150634766	1031.279418945312	767.1229248046875	412.6774291992188	1036.815551757812	748.9345092773438	467.6146850585938	513.8350830078125	804.808349609375	488.8011779785156	652.1390380859375	757.43017578125	504.4192810058594	40.81298828125	759.0718994140625	496.479736328125	283.2515869140625	793.5582885742188	468.0718994140625	47.75080490112305	975.190673828125	422.3544311523438	45.56003189086914	924.9769287109375	537.56494140625	36.15723419189453	867.9461059570312	438.6042785644531	41.67518997192383	704.4378662109375	86.79561614990234	495.5010681152344	665.70361328125	89.76183319091797	764.1715087890625	727.526611328125	29.04350280761719	155.0404052734375	291.3653259277344	87.07279205322266	378.3318481445312	609.1024169921875	121.5893402099609	38.5321044921875	427.1375427246094	149.6297302246094	68.42865753173828	383.6089172363281	25.89312171936035	63.91050338745117	361.93359375	83.52323913574219	207.0906524658203	253.7384796142578	
414	4.13	222.7566680908203	1036.004516601562	532.9517211914062	345.834716796875	1039.73095703125	529.1876220703125	277.0945434570312	1073.190673828125	530.0618286132812	294.9480285644531	1300.492309570312	772.0643920898438	267.5213012695312	1223.74853515625	480.5367736816406	279.6234741210938	1498.405029296875	523.957763671875	299.6420593261719	1410.560424804688	732.1801147460938	167.1993560791016	1316.660400390625	482.8790283203125	377.856201171875	1472.537109375	507.8978881835938	464.8088684082031	1467.411499023438	573.967041015625	534.0800170898438	1334.5	537.3435668945312	560.96826171875	1121.001342773438	554.5252075195312	475.9773254394531	1098.213012695312	536.2185668945312	589.3812866210938	893.1554565429688	673.9548950195312	595.3666381835938	870.9287109375	583.1394653320312	584.6201782226562	1012.304870605469	564.865478515625	582.3197631835938	708.3180541992188	697.1384887695312	604.5113525390625	802.3414916992188	605.3175659179688	615.7826538085938	814.9771728515625	676.8687744140625	106.8602752685547	1481.326293945312	608.6736450195312	37.14584350585938	1413.506225585938	600.7179565429688	-18.99613189697266	1127.384033203125	607.5804443359375	79.18095397949219	1115.422119140625	599.3274536132812	-5.154397010803223	907.2203369140625	757.7911987304688	-55.37016677856445	889.6482543945312	684.07421875	-39.4202766418457	1058.1787109375	636.5490112304688	12.37165641784668	715.08203125	772.630126953125	-15.35294723510742	812.6876220703125	784.9790649414062	-54.948974609375	807.6520385742188	714.8795166015625	214.4530181884766	1661.58056640625	569.1708984375	362.8316650390625	1729.476684570312	714.4823608398438	235.3110961914062	1730.105590820312	730.0608520507812	349.9034118652344	1667.277587890625	546.4170532226562	475.2074279785156	994.60693359375	634.246337890625	106.3608016967773	994.9539794921875	695.5474853515625	160.4343719482422	1031.828735351562	772.4026489257812	416.004638671875	1037.117797851562	757.4533081054688	468.9763488769531	513.31982421875	809.0770874023438	490.6978454589844	651.7841186523438	762.92822265625	504.0408630371094	41.3508415222168	759.4494018554688	496.8799438476562	282.6459350585938	795.8605346679688	467.8849182128906	46.3243522644043	976.2274780273438	421.9664001464844	44.92746734619141	925.626953125	537.4265747070312	36.35646438598633	868.23291015625	438.295654296875	41.90620803833008	704.7699584960938	90.7445068359375	494.8385925292969	679.3930053710938	93.36255645751953	764.6508178710938	735.0902099609375	36.23918914794922	162.3421325683594	298.9696350097656	91.17947387695312	378.5023193359375	621.9483642578125	118.7671813964844	39.11357116699219	437.3469543457031	149.9098205566406	71.13050842285156	395.2621765136719	27.62108993530273	70.65739440917969	367.8096313476562	93.11899566650391	212.6650695800781	263.4573669433594	
415	4.14	227.9154815673828	1036.687377929688	538.7496337890625	351.1896057128906	1040.90771484375	536.4844970703125	282.5090637207031	1074.275390625	536.584716796875	297.4885559082031	1300.9775390625	779.3681030273438	273.9320983886719	1224.926879882812	487.306396484375	285.5670166015625	1499.601318359375	531.2535400390625	302.7450866699219	1411.09619140625	739.7616577148438	173.5818023681641	1317.710083007812	488.4228515625	384.01904296875	1473.4609375	516.47509765625	470.0623474121094	1467.943237304688	583.8046875	539.7177734375	1335.004150390625	548.0686645507812	567.2044067382812	1121.627319335938	565.8189086914062	482.65234375	1098.42724609375	545.73828125	593.9354248046875	894.5753173828125	686.9924926757812	601.8255004882812	871.7610473632812	596.4964599609375	590.981201171875	1012.960632324219	577.1296997070312	587.4241943359375	709.997314453125	711.43212890625	610.8624267578125	803.3946533203125	619.32666015625	620.712890625	816.6615600585938	690.9844970703125	111.5475921630859	1482.177001953125	613.8355102539062	42.12621688842773	1414.156982421875	604.9449462890625	-15.00013828277588	1128.248657226562	611.7669067382812	82.63603210449219	1116.155883789062	603.9557495117188	-2.286481142044067	908.6964111328125	762.8321533203125	-52.12283706665039	890.8500366210938	688.984130859375	-35.71029663085938	1059.15087890625	640.7710571289062	14.8689603805542	716.7496948242188	778.866943359375	-12.78072166442871	814.3953247070312	790.4679565429688	-52.03336334228516	809.0452270507812	720.1428833007812	219.8507995605469	1662.64013671875	575.526123046875	367.2898254394531	1730.326416015625	721.8280639648438	239.7039794921875	1731.545776367188	736.3709716796875	355.4828186035156	1667.711669921875	553.8323364257812	478.6773376464844	995.3817749023438	641.62841796875	108.8678817749023	995.7301635742188	700.6058959960938	163.0452270507812	1032.440185546875	777.4400024414062	419.0926513671875	1037.431030273438	765.6201171875	470.1974182128906	512.8721923828125	813.2028198242188	492.3834838867188	651.5617065429688	768.3180541992188	503.7011108398438	41.80739974975586	759.77197265625	497.2508239746094	282.1166381835938	798.1207885742188	467.7235717773438	45.28226852416992	977.0750732421875	421.6520080566406	44.43928146362305	926.1491088867188	537.257080078125	36.5676383972168	868.4722290039062	438.0462341308594	42.10091400146484	705.0383911132812	94.87830352783203	494.3977966308594	693.1060180664062	96.99569702148438	765.2218017578125	742.6484375	43.91900634765625	169.0275573730469	307.4437561035156	95.57951354980469	378.9176635742188	634.8992919921875	115.68310546875	40.29364013671875	449.2338256835938	149.9520263671875	73.60462951660156	408.2117919921875	29.41543579101562	77.68473052978516	375.2398071289062	103.2791290283203	217.0609436035156	273.7187194824219	
416	4.15	232.7673492431641	1037.536987304688	544.3344116210938	356.197998046875	1042.089599609375	543.4425659179688	287.6204223632812	1075.4091796875	542.9174194335938	299.7996520996094	1301.466064453125	786.4509887695312	280.076171875	1226.208251953125	493.8989562988281	291.2920532226562	1500.818969726562	538.5202026367188	305.6405944824219	1411.662353515625	747.1984252929688	179.7660064697266	1318.912475585938	493.8202209472656	389.9670715332031	1474.490112304688	524.9871826171875	475.077880859375	1468.576782226562	593.5762939453125	545.1356811523438	1335.622192382812	558.7456665039062	573.230712890625	1122.406494140625	577.1094970703125	489.1842346191406	1098.752197265625	555.2093505859375	598.31005859375	896.183349609375	700.0113525390625	608.1705932617188	872.785400390625	609.87890625	597.178955078125	1013.794921875	589.4111938476562	592.6655883789062	711.9075317382812	725.7738037109375	617.2019653320312	804.6781616210938	633.3826904296875	625.5803833007812	818.608154296875	705.1112670898438	116.0732040405273	1483.105102539062	618.8787231445312	46.94046401977539	1414.891479492188	609.0362548828125	-10.98777770996094	1129.143310546875	615.8128662109375	86.33606719970703	1116.913208007812	608.60595703125	0.6780270338058472	910.3088989257812	767.9248657226562	-48.79613876342773	892.1256103515625	693.9867553710938	-31.96127700805664	1060.138427734375	644.9269409179688	17.41309356689453	718.5797729492188	785.3471069335938	-10.09683799743652	816.2959594726562	796.12109375	-49.02423477172852	810.5515747070312	725.6107177734375	225.0887451171875	1663.729858398438	581.8450317382812	371.6175842285156	1731.184204101562	729.1072387695312	243.9747314453125	1733.045776367188	742.6209106445312	360.8848266601562	1668.12744140625	561.20361328125	481.9912109375	996.2256469726562	648.9121704101562	111.0857009887695	996.647705078125	705.4226684570312	165.4015960693359	1033.15771484375	782.2255249023438	421.9483642578125	1037.786743164062	773.41259765625	471.2843322753906	512.4686889648438	817.2152709960938	493.8909606933594	651.450439453125	773.6392822265625	503.4075317382812	42.18608474731445	760.0515747070312	497.5895080566406	281.6497192382812	800.369384765625	467.5777282714844	44.55502319335938	977.7564697265625	421.4139099121094	44.05960464477539	926.5564575195312	537.0747680664062	36.7711181640625	868.6761474609375	437.8665466308594	42.2639045715332	705.2545776367188	99.14476013183594	494.2357177734375	706.7404174804688	100.5954208374023	765.9313354492188	750.1616821289062	51.83540725708008	174.901611328125	316.8451538085938	100.1597213745117	379.6045532226562	647.9080810546875	112.697868347168	42.07845306396484	462.6161193847656	149.9874725341797	75.69788360595703	422.1948547363281	31.40275382995605	84.67748260498047	384.2931518554688	113.7399826049805	220.1887054443359	284.5836486816406	
